<?xml version="1.0" encoding="utf-8"?>
<!-- Generator: Adobe Illustrator 22.0.0, SVG Export Plug-In . SVG Version: 6.00 Build 0)  -->
<svg version="1.1" id="Layer_1" xmlns="http://www.w3.org/2000/svg" xmlns:xlink="http://www.w3.org/1999/xlink" x="0px" y="0px"
	 viewBox="0 0 406.4 171.6" style="enable-background:new 0 0 406.4 171.6;" xml:space="preserve">
<style type="text/css">
	.st0{fill:#CC0066;}
	.st1{font-family:'BowlbyOneSC-Regular';}
	.st2{font-size:171px;}
	.st3{fill:#0099CC;}
	.st4{fill:#009933;}
	.st5{fill:#FFCC00;}
	.st6{fill:#009EE2;}
	.st7{fill:#009EDC;stroke:#FFFFFF;stroke-miterlimit:10;}
	.st8{fill:#9DC439;stroke:#FFFFFF;stroke-miterlimit:10;}
	.st9{fill:#F3BE16;stroke:#FFFFFF;stroke-miterlimit:10;}
	.st10{fill:#E10B7D;stroke:#FFFFFF;stroke-miterlimit:10;}
	.st11{fill:#009B4B;stroke:#FFFFFF;stroke-miterlimit:10;}
</style>
<g id="Capa_1_copia_2">
	<text transform="matrix(1.1916 0 0 1.1 2 147.9756)" class="st0 st1 st2">S</text>
	<text transform="matrix(1.1916 0 0 1.1 126.2793 147.9756)" class="st3 st1 st2">I</text>
	<text transform="matrix(1.1916 0 0 1.1 196.8203 147.9756)" class="st4 st1 st2">I</text>
	<text transform="matrix(1.1916 0 0 1.1 267.4785 147.9756)" class="st5 st1 st2">T</text>
</g>
<g>
	<g>
		<path class="st6" d="M10.7,154.6v15H7.3v-15H10.7z"/>
		<path class="st6" d="M13.7,169.7v-15h3.9l3.2,5.5c0.9,1.6,1.8,3.4,2.5,5.1l0,0c-0.2-1.9-0.4-4.1-0.4-6.2v-4.4h3.2v15h-3.5
			l-3.2-5.8c-0.9-1.6-1.9-3.5-2.7-5.3h-0.2c0.2,1.9,0.2,4.1,0.2,6.5v4.6H13.7z"/>
		<path class="st6" d="M29.1,166.1c0.9,0.5,2.3,0.9,3.7,0.9c1.6,0,2.3-0.7,2.3-1.6s-0.7-1.4-2.5-2.1c-2.5-0.9-4.1-2.3-4.1-4.4
			c0-2.5,2.1-4.4,5.7-4.4c1.8,0,3,0.4,3.9,0.7l-0.7,2.7c-0.5-0.4-1.6-0.7-3.2-0.7c-1.4,0-2.1,0.7-2.1,1.4c0,0.9,0.9,1.4,2.8,2.1
			c2.7,1.1,3.9,2.3,3.9,4.4c0,2.5-1.9,4.6-6,4.6c-1.8,0-3.4-0.5-4.2-0.9L29.1,166.1z"/>
		<path class="st6" d="M43.9,157.5h-4.1v-2.8h11.5v2.8h-4.1v12.2h-3.4C43.9,169.7,43.9,157.5,43.9,157.5z"/>
		<path class="st6" d="M56.5,154.6v15h-3.4v-15H56.5z"/>
		<path class="st6" d="M62.3,157.5h-4.1v-2.8h11.5v2.8h-4.1v12.2h-3.4C62.3,169.7,62.3,157.5,62.3,157.5z"/>
		<path class="st6" d="M75,154.6v8.7c0,2.7,1.1,3.9,2.7,3.9c1.8,0,2.8-1.2,2.8-3.9v-8.7h3.4v8.3c0,4.6-2.3,6.9-6.2,6.9
			c-3.7,0-6-2.1-6-6.9v-8.3H75z"/>
		<path class="st6" d="M89.7,157.5h-4.1v-2.8h11.5v2.8h-4.1v12.2h-3.4C89.7,169.7,89.7,157.5,89.7,157.5z"/>
		<path class="st6" d="M104.6,169.8c-4.4,0-7.1-3.4-7.1-7.6c0-4.4,2.8-7.8,7.2-7.8c4.6,0,7.1,3.4,7.1,7.6
			C112,166.8,109,169.8,104.6,169.8L104.6,169.8z M104.7,167.2c2.3,0,3.5-2.1,3.5-5.1c0-2.7-1.2-5-3.5-5c-2.3,0-3.7,2.3-3.7,5.1
			C101,164.9,102.4,167.2,104.7,167.2L104.7,167.2z"/>
		<path class="st6" d="M118.7,169.7v-15h3.9l3.2,5.5c0.9,1.6,1.8,3.4,2.5,5.1l0,0c-0.2-1.9-0.4-4.1-0.4-6.2v-4.4h3.2v15h-3.5
			l-3.2-5.8c-0.9-1.6-1.9-3.5-2.7-5.3h-0.2c0.2,1.9,0.2,4.1,0.2,6.5v4.6H118.7z"/>
		<path class="st6" d="M137.3,154.6v15h-3.4v-15H137.3z"/>
		<path class="st6" d="M151.2,169.1c-0.5,0.4-1.9,0.7-3.9,0.7c-5.1,0-7.8-3.2-7.8-7.6c0-5.1,3.7-8,8.1-8c1.8,0,3,0.4,3.7,0.7
			l-0.7,2.7c-0.7-0.4-1.6-0.5-2.8-0.5c-2.7,0-4.8,1.6-4.8,4.9c0,3,1.8,5,4.8,5c1.1,0,2.1-0.2,2.8-0.5L151.2,169.1z"/>
		<path class="st6" d="M157.1,165.8l-1.1,3.9h-3.5l4.6-15h4.4l4.6,15h-3.7l-1.2-3.9H157.1z M161,163.3l-0.9-3.2
			c-0.2-0.9-0.5-1.9-0.7-2.8l0,0c-0.2,0.9-0.5,1.9-0.7,2.8l-0.9,3.2H161z"/>
		<path class="st6" d="M168.2,154.8c1.1-0.2,2.7-0.4,4.4-0.4c2.3,0,3.7,0.4,4.8,1.2c0.9,0.7,1.4,1.8,1.4,3.2c0,1.9-1.4,3.2-2.7,3.7
			l0,0c1.1,0.4,1.6,1.4,1.9,2.8c0.5,1.8,0.9,3.7,1.2,4.2h-3.5c-0.2-0.4-0.5-1.6-1.1-3.5c-0.4-1.9-1.1-2.3-2.5-2.5h-1.1v6h-3.4v-14.8
			L168.2,154.8L168.2,154.8z M171.6,161.4h1.4c1.8,0,2.7-0.9,2.7-2.1c0-1.4-0.9-2.1-2.5-2.1c-0.9,0-1.2,0-1.6,0.2L171.6,161.4
			L171.6,161.4z"/>
		<path class="st6" d="M185,165.8l-1.1,3.9h-3.5l4.6-15h4.4l4.6,15h-3.5l-1.2-3.9H185z M188.9,163.3l-0.9-3.2
			c-0.2-0.9-0.5-1.9-0.7-2.8l0,0c-0.2,0.9-0.5,1.9-0.7,2.8l-0.9,3.2H188.9z"/>
		<path class="st6" d="M208,169c-1.1,0.4-3,0.9-5,0.9c-2.7,0-4.8-0.7-6-1.9c-1.4-1.2-2.1-3.2-2.1-5.5c0-4.9,3.7-7.8,8.5-7.8
			c1.9,0,3.4,0.4,4.1,0.7l-0.7,2.7c-0.9-0.4-1.8-0.7-3.5-0.7c-2.8,0-4.9,1.6-4.9,4.8s1.9,4.9,4.8,4.9c0.7,0,1.4-0.2,1.6-0.2v-3.2
			h-2.3V161h5.5L208,169L208,169z"/>
		<path class="st6" d="M214,154.6v8.7c0,2.7,1.1,3.9,2.7,3.9c1.8,0,2.8-1.2,2.8-3.9v-8.7h3.4v8.3c0,4.6-2.3,6.9-6.2,6.9
			c-3.7,0-6-2.1-6-6.9v-8.3H214z M214.7,153.8c-0.9,0-1.6-0.7-1.6-1.4c0-0.9,0.7-1.6,1.6-1.6c0.9,0,1.4,0.7,1.4,1.6
			C216.1,153.1,215.6,153.8,214.7,153.8L214.7,153.8z M219.1,153.8c-0.9,0-1.4-0.7-1.4-1.4c0-0.9,0.7-1.6,1.6-1.6s1.4,0.7,1.4,1.6
			C220.7,153.1,220,153.8,219.1,153.8L219.1,153.8z"/>
		<path class="st6" d="M234.7,163.3h-5.5v3.5h6.2v2.8h-9.5v-15h9.2v2.8h-5.8v3.2h5.5V163.3z"/>
		<path class="st6" d="M237.7,169.7v-15h3.9l3.2,5.5c0.9,1.6,1.8,3.4,2.5,5.1l0,0c-0.2-1.9-0.4-4.1-0.4-6.2v-4.4h3.2v15h-3.5
			l-3.2-5.8c-0.9-1.6-1.9-3.5-2.7-5.3l0,0c0.2,1.9,0.2,4.1,0.2,6.5v4.6H237.7z"/>
		<path class="st6" d="M253.1,166.1c0.9,0.5,2.3,0.9,3.7,0.9c1.6,0,2.3-0.7,2.3-1.6s-0.7-1.4-2.5-2.1c-2.5-0.9-4.1-2.3-4.1-4.4
			c0-2.5,2.1-4.4,5.7-4.4c1.8,0,3,0.4,3.9,0.7l-0.7,2.7c-0.5-0.4-1.6-0.7-3.2-0.7c-1.4,0-2.1,0.7-2.1,1.4c0,0.9,0.9,1.4,2.8,2.1
			c2.7,1.1,3.9,2.3,3.9,4.4c0,2.5-1.9,4.6-6,4.6c-1.8,0-3.4-0.5-4.2-0.9L253.1,166.1z"/>
		<path class="st6" d="M273.9,163.3h-5.7v3.5h6.2v2.8h-9.5v-15h9.2v2.8h-5.8v3.2h5.5L273.9,163.3L273.9,163.3z"/>
		<path class="st6" d="M281.3,154.8c1.2-0.2,2.8-0.4,4.6-0.4c2.8,0,4.8,0.5,6.2,1.6c1.6,1.2,2.5,3,2.5,5.7c0,2.8-1.1,4.8-2.5,6
			c-1.6,1.2-4.1,1.9-6.9,1.9c-1.8,0-3-0.2-3.9-0.2V154.8L281.3,154.8z M284.7,167c0.4,0,0.7,0,1.2,0c3,0,5.1-1.6,5.1-5.3
			c0-3.2-1.8-4.8-4.8-4.8c-0.7,0-1.2,0-1.6,0.2V167z"/>
		<path class="st6" d="M305.6,163.3h-5.5v3.5h6.2v2.8h-9.5v-15h9.2v2.8h-5.8v3.2h5.5V163.3z"/>
		<path class="st6" d="M315.1,157.5H311v-2.8h11.5v2.8h-4.1v12.2h-3.4V157.5L315.1,157.5z"/>
		<path class="st6" d="M327.7,154.6v8.7c0,2.7,1.1,3.9,2.7,3.9c1.8,0,2.8-1.2,2.8-3.9v-8.7h3.4v8.3c0,4.6-2.3,6.9-6.2,6.9
			c-3.7,0-6-2.1-6-6.9v-8.3H327.7z"/>
		<path class="st6" d="M339.5,154.8c1.1-0.2,2.7-0.4,4.4-0.4c2.3,0,3.7,0.4,4.8,1.2c0.9,0.7,1.4,1.8,1.4,3.2c0,1.9-1.4,3.2-2.7,3.7
			l0,0c1.1,0.4,1.6,1.4,1.9,2.8c0.5,1.8,0.9,3.7,1.2,4.2h-3.5c-0.2-0.4-0.5-1.6-1.1-3.5c-0.4-1.9-1.1-2.3-2.5-2.5h-1.1v6h-3.4v-14.8
			L339.5,154.8L339.5,154.8z M342.9,161.4h1.4c1.8,0,2.7-0.9,2.7-2.1c0-1.4-0.9-2.1-2.5-2.1c-0.9,0-1.2,0-1.6,0.2L342.9,161.4
			L342.9,161.4z"/>
		<path class="st6" d="M356,154.6v15h-3.4v-15H356z"/>
		<path class="st6" d="M359.1,166.1c0.9,0.5,2.3,0.9,3.7,0.9c1.6,0,2.3-0.7,2.3-1.6s-0.7-1.4-2.5-2.1c-2.5-0.9-4.1-2.3-4.1-4.4
			c0-2.5,2.1-4.4,5.7-4.4c1.8,0,3,0.4,3.9,0.7l-0.7,2.7c-0.5-0.4-1.6-0.7-3.2-0.7c-1.4,0-2.1,0.7-2.1,1.4c0,0.9,0.9,1.4,2.8,2.1
			c2.7,1.1,3.9,2.3,3.9,4.4c0,2.5-1.9,4.6-6,4.6c-1.8,0-3.4-0.5-4.2-0.9L359.1,166.1z"/>
		<path class="st6" d="M383.5,163.8c0-1.8-0.2-3.9-0.2-6.2l0,0c-0.5,1.9-1.1,4.1-1.8,5.8l-1.8,5.8h-2.7l-1.6-5.8
			c-0.5-1.8-1.1-3.9-1.4-5.8l0,0c0,1.9-0.2,4.2-0.2,6.2l-0.4,5.7h-3.2l0.9-15h4.4l1.4,4.9c0.5,1.8,0.9,3.5,1.2,5.3l0,0
			c0.4-1.8,0.9-3.7,1.4-5.3l1.6-4.9h4.4l0.9,15h-3.4L383.5,163.8z"/>
		<path class="st6" d="M396.1,169.8c-4.4,0-7.1-3.4-7.1-7.6c0-4.4,2.8-7.8,7.2-7.8c4.6,0,7.1,3.4,7.1,7.6
			C403.3,166.8,400.5,169.8,396.1,169.8L396.1,169.8z M396.3,167.2c2.3,0,3.5-2.1,3.5-5.1c0-2.7-1.2-5-3.5-5c-2.3,0-3.7,2.3-3.7,5.1
			C392.5,164.9,394,167.2,396.3,167.2L396.3,167.2z"/>
	</g>
</g>
<g id="flor1">
	<path class="st7" d="M234.4,123.6c-4.2,0-6.1,2.5-7,5.7c-0.8,3.2-1.2,5.4-0.6,7.4c0.6,2.1,1.4,3.4,2.9,2.7c1.5-0.7,4.8-1.8,6.5-6.9
		C237.9,127.5,237.4,125.2,234.4,123.6"/>
	<path class="st8" d="M231.5,120.4c-2.5-2.7-6.3-2.4-9.2-0.5s-4.7,4.8-3.5,6.3s2.7,1.1,4,0.5C223.6,126.3,236.1,121.8,231.5,120.4"
		/>
	<path class="st9" d="M229.7,116.6c3.2-1.5-0.3-4.9-3.9-6.7c-3.6-1.8-8.2-2.5-9.2-0.6c-1,1.9,2.7,4,3.5,4.7
		C220.9,114.7,226.3,118.4,229.7,116.6"/>
	<path class="st10" d="M237.3,123.4c3.4-1.4,3.4-5,2-6.9c-1.3-1.9-4.3-2.7-6.3-0.8c-2.1,1.9-0.9,4.1-0.8,4.8
		S233.6,125.1,237.3,123.4"/>
	<path class="st11" d="M234.8,114.2c2.8-1,2-5.6,0.1-9.5c-1.9-3.9-4.2-7.6-5.7-8.4c-1.5-0.8-4,0.5-4.1,3.4
		C224.9,102.6,231.7,115.3,234.8,114.2"/>
	<path class="st9" d="M239.6,114.3c3.3,1.3,5.9,0.7,7-7.2c1.2-7.8,0.4-9.7,0.2-10.4c-0.3-0.7-1.6-2.8-4,0c-2.4,2.8-4.6,6.9-5.3,10
		C236.8,109.9,236.5,112.7,239.6,114.3"/>
	<path class="st7" d="M241.5,117.8c-0.2,2.7,6.4,5.3,12,2.7s6.7-4.6,6.3-6.2c-0.4-1.6-2.1-4.1-6.9-2.7
		C248,113,241.7,115.4,241.5,117.8"/>
	<path class="st11" d="M239.6,122c-2.2,4.3,0.7,10.4,6.6,13.2c5.9,2.8,7.5,2.2,7.8-0.5c0.3-2.8-1.5-6.6-4.8-9.2
		C246,122.8,241.9,118.6,239.6,122"/>
</g>
<g id="flor2">
	<path class="st7" d="M166.1,45.1c-4.2,0-6.1,2.5-7,5.7c-0.8,3.2-1.2,5.4-0.6,7.4c0.6,2.1,1.4,3.4,2.9,2.7s4.8-1.8,6.5-6.9
		C169.6,49,169.1,46.7,166.1,45.1"/>
	<path class="st8" d="M163.2,41.9c-2.5-2.7-6.3-2.4-9.2-0.5c-2.9,1.9-4.7,4.8-3.5,6.3s2.7,1.1,4,0.5
		C155.3,47.8,167.8,43.3,163.2,41.9"/>
	<path class="st9" d="M161.4,38.1c3.2-1.5-0.3-4.9-3.9-6.7c-3.6-1.8-8.2-2.5-9.2-0.6s2.7,4,3.5,4.7C152.6,36.2,158,39.9,161.4,38.1"
		/>
	<path class="st10" d="M169,44.9c3.4-1.4,3.4-5,2-6.9c-1.3-1.9-4.3-2.7-6.3-0.8c-2.1,1.9-0.9,4.1-0.8,4.8
		C164,42.7,165.3,46.6,169,44.9"/>
	<path class="st11" d="M166.5,35.7c2.8-1,2-5.6,0.1-9.5s-4.2-7.6-5.7-8.4s-4,0.5-4.1,3.4C156.6,24.1,163.4,36.8,166.5,35.7"/>
	<path class="st9" d="M171.3,35.8c3.3,1.3,5.9,0.7,7-7.2c1.2-7.8,0.4-9.7,0.2-10.4c-0.3-0.7-1.6-2.8-4,0s-4.6,6.9-5.3,10
		C168.5,31.4,168.2,34.2,171.3,35.8"/>
	<path class="st7" d="M173.2,39.3c-0.2,2.7,6.4,5.3,12,2.7s6.7-4.6,6.3-6.2s-2.1-4.1-6.9-2.7C179.7,34.5,173.4,36.9,173.2,39.3"/>
	<path class="st11" d="M171.3,43.5c-2.2,4.3,0.7,10.4,6.6,13.2c5.9,2.8,7.5,2.2,7.8-0.5c0.3-2.8-1.5-6.6-4.8-9.2
		C177.7,44.3,173.6,40.1,171.3,43.5"/>
</g>
</svg>
